<svg width="900px" height="1151px"
 viewBox="0.00 0.00 146.89 188.00" xmlns="http://www.w3.org/2000/svg" xmlns:xlink="http://www.w3.org/1999/xlink">
<g id="graph0" class="graph" transform="scale(1.0 1.0) rotate(0.0) translate(4.0 184.0)">
<polygon fill="white" stroke="none" points="-4,4 -4,-184 142.89,-184 142.89,4 -4,4"/>
<!-- F -->
<g id="node1" class="node">
<title>F</title>
<ellipse fill="none" stroke="black" cx="39.89" cy="-90" rx="27" ry="18"/>
<text text-anchor="middle" x="39.89" y="-84.58" font-family="Times New Roman,serif" font-size="14.00">F</text>
</g>
<!-- A -->
<g id="node2" class="node">
<title>A</title>
<ellipse fill="none" stroke="black" cx="47.89" cy="-18" rx="27" ry="18"/>
<text text-anchor="middle" x="47.89" y="-12.57" font-family="Times New Roman,serif" font-size="14.00">A</text>
</g>
<!-- B -->
<g id="node3" class="node">
<title>B</title>
<ellipse fill="none" stroke="black" cx="39.89" cy="-162" rx="27" ry="18"/>
<text text-anchor="middle" x="39.89" y="-156.57" font-family="Times New Roman,serif" font-size="14.00">B</text>
</g>
<!-- A&#45;&gt;B -->
<g id="edge1" class="edge">
<title>A&#45;&gt;B</title>
<path fill="none" stroke="black" d="M32.04,-32.51C21.84,-42.29 9.5,-56.48 3.89,-72 -1.54,-87.05 -0.81,-92.71 3.89,-108 7.08,-118.35 13.04,-128.49 19.22,-137.09"/>
<polygon fill="black" stroke="black" points="16.34,-139.09 25.22,-144.87 21.88,-134.81 16.34,-139.09"/>
</g>
<!-- B&#45;&gt;F -->
<g id="edge3" class="edge">
<title>B&#45;&gt;F</title>
<path fill="none" stroke="black" d="M39.89,-143.7C39.89,-136.41 39.89,-127.73 39.89,-119.54"/>
<polygon fill="black" stroke="black" points="43.39,-119.62 39.89,-109.62 36.39,-119.62 43.39,-119.62"/>
</g>
<!-- C -->
<g id="node4" class="node">
<title>C</title>
<ellipse fill="none" stroke="black" cx="111.89" cy="-90" rx="27" ry="18"/>
<text text-anchor="middle" x="111.89" y="-84.58" font-family="Times New Roman,serif" font-size="14.00">C</text>
</g>
<!-- B&#45;&gt;C -->
<g id="edge2" class="edge">
<title>B&#45;&gt;C</title>
<path fill="none" stroke="black" d="M54.81,-146.5C64.66,-136.92 77.75,-124.19 88.92,-113.34"/>
<polygon fill="black" stroke="black" points="91.18,-116.02 95.91,-106.54 86.3,-111 91.18,-116.02"/>
</g>
<!-- C&#45;&gt;A -->
<g id="edge4" class="edge">
<title>C&#45;&gt;A</title>
<path fill="none" stroke="black" d="M98.32,-74.15C89.83,-64.87 78.73,-52.73 69.1,-42.19"/>
<polygon fill="black" stroke="black" points="71.8,-39.96 62.47,-34.94 66.63,-44.68 71.8,-39.96"/>
</g>
</g>
</svg>
