<svg width="900px" height="821px"
 viewBox="0.00 0.00 206.00 188.00" xmlns="http://www.w3.org/2000/svg" xmlns:xlink="http://www.w3.org/1999/xlink">
<g id="graph0" class="graph" transform="scale(1.0 1.0) rotate(0.0) translate(4.0 184.0)">
<polygon fill="white" stroke="none" points="-4,4 -4,-184 202,-184 202,4 -4,4"/>
<!-- G -->
<g id="node1" class="node">
<title>G</title>
<ellipse fill="none" stroke="black" cx="27" cy="-162" rx="27" ry="18"/>
<text text-anchor="middle" x="27" y="-156.57" font-family="Times New Roman,serif" font-size="14.00">G</text>
</g>
<!-- I -->
<g id="node2" class="node">
<title>I</title>
<ellipse fill="none" stroke="black" cx="99" cy="-162" rx="27" ry="18"/>
<text text-anchor="middle" x="99" y="-156.57" font-family="Times New Roman,serif" font-size="14.00">I</text>
</g>
<!-- A -->
<g id="node3" class="node">
<title>A</title>
<ellipse fill="none" stroke="black" cx="171" cy="-162" rx="27" ry="18"/>
<text text-anchor="middle" x="171" y="-156.57" font-family="Times New Roman,serif" font-size="14.00">A</text>
</g>
<!-- B -->
<g id="node4" class="node">
<title>B</title>
<ellipse fill="none" stroke="black" cx="143" cy="-90" rx="27" ry="18"/>
<text text-anchor="middle" x="143" y="-84.58" font-family="Times New Roman,serif" font-size="14.00">B</text>
</g>
<!-- A&#45;&gt;B -->
<g id="edge1" class="edge">
<title>A&#45;&gt;B</title>
<path fill="none" stroke="black" d="M164.36,-144.41C161.23,-136.57 157.4,-126.99 153.85,-118.13"/>
<polygon fill="black" stroke="black" points="157.11,-116.86 150.15,-108.88 150.61,-119.46 157.11,-116.86"/>
</g>
<!-- C -->
<g id="node5" class="node">
<title>C</title>
<ellipse fill="none" stroke="black" cx="170" cy="-18" rx="27" ry="18"/>
<text text-anchor="middle" x="170" y="-12.57" font-family="Times New Roman,serif" font-size="14.00">C</text>
</g>
<!-- B&#45;&gt;C -->
<g id="edge2" class="edge">
<title>B&#45;&gt;C</title>
<path fill="none" stroke="black" d="M149.54,-72.05C152.52,-64.32 156.13,-54.96 159.48,-46.27"/>
<polygon fill="black" stroke="black" points="162.65,-47.79 162.98,-37.2 156.12,-45.27 162.65,-47.79"/>
</g>
<!-- C&#45;&gt;A -->
<g id="edge3" class="edge">
<title>C&#45;&gt;A</title>
<path fill="none" stroke="black" d="M173.65,-36.09C175.68,-46.43 177.98,-59.91 179,-72 180.34,-87.94 180.2,-92.04 179,-108 178.4,-116.01 177.29,-124.65 176.09,-132.57"/>
<polygon fill="black" stroke="black" points="172.65,-131.96 174.49,-142.39 179.55,-133.09 172.65,-131.96"/>
</g>
</g>
</svg>
